<svg version="1.1" xmlns="http://www.w3.org/2000/svg" viewBox="0 0 1055.1347045898438 972.4342665836774" width="1055.1347045898438" height="972.4342665836774">
  <!-- svg-source:excalidraw -->
  
  <defs>
    <style class="style-fonts">
      @font-face {
        font-family: "Virgil";
        src: url("https://excalidraw.com/Virgil.woff2");
      }
      @font-face {
        font-family: "Cascadia";
        src: url("https://excalidraw.com/Cascadia.woff2");
      }
    </style>
  </defs>
  <g stroke-linecap="round" transform="translate(10 218.43426658367738) rotate(0 191.5 372)"><path d="M32 0 M32 0 C113.76 -0.48, 193.04 -0.88, 351 0 M32 0 C126.69 2.52, 222.32 1.49, 351 0 M351 0 C374.01 1.2, 382.07 11.6, 383 32 M351 0 C373.8 -2.24, 384.47 9.39, 383 32 M383 32 C386.4 231.36, 385.9 430.81, 383 712 M383 32 C380.47 196.52, 380.68 361.53, 383 712 M383 712 C383.18 731.85, 373.15 744.15, 351 744 M383 712 C384.13 731.93, 373.68 745.37, 351 744 M351 744 C234.56 744.67, 118.82 746.5, 32 744 M351 744 C233.49 745.46, 115.58 745.75, 32 744 M32 744 C9.72 744.26, 1.85 734.96, 0 712 M32 744 C10.08 745.88, 1.33 734.9, 0 712 M0 712 C2.14 474.6, 1.61 238.09, 0 32 M0 712 C2.41 446.11, 2.18 179.56, 0 32 M0 32 C-1.29 9.81, 11.05 -1.54, 32 0 M0 32 C-0.18 8.5, 8.57 1.42, 32 0" stroke="#000000" stroke-width="1" fill="none"></path></g><g transform="translate(54 218.43426658367738) rotate(0 147.5 17.5)"><text x="147.5" y="25" font-family="Virgil, Segoe UI Emoji" font-size="28px" fill="#000000" text-anchor="middle" style="white-space: pre;" direction="ltr">ftgo-consumer-service</text></g><g stroke-linecap="round" transform="translate(38.1346435546875 285.51632835125554) rotate(0 162.5 39.5)"><path d="M19.75 0 M19.75 0 C80.82 0.8, 145.19 1.97, 305.25 0 M19.75 0 C108.06 0.28, 197.99 1.63, 305.25 0 M305.25 0 C317.56 0.34, 325.94 5.48, 325 19.75 M305.25 0 C320.65 -0.34, 327 4.57, 325 19.75 M325 19.75 C326.17 32.26, 326.5 45.5, 325 59.25 M325 19.75 C324.53 28.3, 323.99 36.6, 325 59.25 M325 59.25 C325.96 72.17, 316.69 77.03, 305.25 79 M325 59.25 C326.97 71.51, 318.28 80.98, 305.25 79 M305.25 79 C202.15 78.16, 99.92 77, 19.75 79 M305.25 79 C202.36 77.99, 99.63 77.9, 19.75 79 M19.75 79 C7.43 80.61, 1.34 70.84, 0 59.25 M19.75 79 C6.54 79.42, -0.56 70.83, 0 59.25 M0 59.25 C-0.52 46.13, -1.65 33.8, 0 19.75 M0 59.25 C-0.59 45.91, 0.48 34.3, 0 19.75 M0 19.75 C-1.21 4.84, 7.99 -0.62, 19.75 0 M0 19.75 C-1.96 5.83, 8.49 2.22, 19.75 0" stroke="#000000" stroke-width="1" fill="none"></path></g><g transform="translate(95.1346435546875 312.51632835125554) rotate(0 105.5 12.5)"><text x="105.5" y="18" font-family="Virgil, Segoe UI Emoji" font-size="20px" fill="#000000" text-anchor="middle" style="white-space: pre;" direction="ltr">ftgo-consumer-common</text></g><g stroke-linecap="round" transform="translate(38.78045654296875 376.6003737614118) rotate(0 162.5 39.5)"><path d="M19.75 0 M19.75 0 C128.93 0.88, 238.03 0.38, 305.25 0 M19.75 0 C87.41 -1.01, 156.12 -0.98, 305.25 0 M305.25 0 C317.49 -0.48, 325.21 6.7, 325 19.75 M305.25 0 C320.07 0.5, 326.81 5.46, 325 19.75 M325 19.75 C324.61 31.2, 324.16 42.04, 325 59.25 M325 19.75 C325.05 31.47, 324.97 41.24, 325 59.25 M325 59.25 C323.11 74.04, 318.48 79.53, 305.25 79 M325 59.25 C327.05 71.72, 318.26 78.46, 305.25 79 M305.25 79 C241.59 79.38, 178.86 79.46, 19.75 79 M305.25 79 C246.68 79.46, 186.98 79.89, 19.75 79 M19.75 79 C5.25 80.82, -1.65 73.88, 0 59.25 M19.75 79 C6.56 80.89, 2.01 71.98, 0 59.25 M0 59.25 C-1.82 49.37, -0.76 41.37, 0 19.75 M0 59.25 C1.05 49.55, -0.33 40.82, 0 19.75 M0 19.75 C1.72 7.95, 5.88 -0.8, 19.75 0 M0 19.75 C-0.63 8.37, 6.33 0.94, 19.75 0" stroke="#000000" stroke-width="1" fill="none"></path></g><g transform="translate(95.78045654296875 403.6003737614118) rotate(0 105.5 12.5)"><text x="105.5" y="18" font-family="Virgil, Segoe UI Emoji" font-size="20px" fill="#000000" text-anchor="middle" style="white-space: pre;" direction="ltr">ftgo-consumer-inbound</text></g><g stroke-linecap="round" transform="translate(38.50311279296875 470.98166038250554) rotate(0 162.5 39.5)"><path d="M19.75 0 M19.75 0 C129.28 0.35, 241.19 0.6, 305.25 0 M19.75 0 C117.64 0.22, 214.07 0.28, 305.25 0 M305.25 0 C318.05 1.53, 323.17 6.06, 325 19.75 M305.25 0 C317.21 1.85, 323.47 7.03, 325 19.75 M325 19.75 C326.74 27.37, 323.91 36.59, 325 59.25 M325 19.75 C324.77 34.95, 325.58 48.56, 325 59.25 M325 59.25 C325.68 71.8, 318.98 77.31, 305.25 79 M325 59.25 C323.07 71.23, 320.63 77.92, 305.25 79 M305.25 79 C229.28 77.05, 153.32 76.38, 19.75 79 M305.25 79 C199.12 79.01, 94.38 77.93, 19.75 79 M19.75 79 C4.62 79.61, -1.84 71.14, 0 59.25 M19.75 79 C5.21 78.93, -1.13 72.88, 0 59.25 M0 59.25 C1.56 49.63, 1.82 39.39, 0 19.75 M0 59.25 C0.16 46.93, -0.97 34.78, 0 19.75 M0 19.75 C1.99 6.98, 4.6 1.42, 19.75 0 M0 19.75 C0.17 8.67, 6.95 -0.72, 19.75 0" stroke="#000000" stroke-width="1" fill="none"></path></g><g transform="translate(77.50311279296875 497.98166038250554) rotate(0 123.5 12.5)"><text x="123.5" y="18" font-family="Virgil, Segoe UI Emoji" font-size="20px" fill="#000000" text-anchor="middle" style="white-space: pre;" direction="ltr">ftgo-consumer-inbound-api</text></g><g stroke-linecap="round" transform="translate(39.0107421875 561.6338210270368) rotate(0 162.5 39.5)"><path d="M19.75 0 M19.75 0 C106.09 1.07, 192.73 0.76, 305.25 0 M19.75 0 C95.55 1.85, 172.6 1.01, 305.25 0 M305.25 0 C317.96 -1.77, 326.32 5.09, 325 19.75 M305.25 0 C317.68 -0.32, 327.19 4.38, 325 19.75 M325 19.75 C325.77 30.78, 322.88 43.23, 325 59.25 M325 19.75 C324.35 32.22, 325.54 46.91, 325 59.25 M325 59.25 C326.04 72.28, 319.98 77.39, 305.25 79 M325 59.25 C324.62 72.58, 319.58 77.24, 305.25 79 M305.25 79 C197.21 79.14, 88.99 78.1, 19.75 79 M305.25 79 C209.45 78.74, 112.86 79.39, 19.75 79 M19.75 79 C8.12 78.63, -0.88 72.43, 0 59.25 M19.75 79 C8.86 79.45, 1.11 72.89, 0 59.25 M0 59.25 C1.42 49.99, -0.26 39.35, 0 19.75 M0 59.25 C-0.47 47.87, 0.72 37.73, 0 19.75 M0 19.75 C-1.67 7.27, 7.71 0.96, 19.75 0 M0 19.75 C-0.89 6, 4.85 1.68, 19.75 0" stroke="#000000" stroke-width="1" fill="none"></path></g><g transform="translate(109.0107421875 588.6338210270368) rotate(0 92.5 12.5)"><text x="92.5" y="18" font-family="Virgil, Segoe UI Emoji" font-size="20px" fill="#000000" text-anchor="middle" style="white-space: pre;" direction="ltr">ftgo-consumer-logic</text></g><g stroke-linecap="round" transform="translate(39.211181640625 657.1484084293805) rotate(0 162.5 39.5)"><path d="M19.75 0 M19.75 0 C85.24 -0.01, 153.11 1.41, 305.25 0 M19.75 0 C131.18 -1.49, 242.84 -0.74, 305.25 0 M305.25 0 C318.75 0, 325.15 5.38, 325 19.75 M305.25 0 C318.81 0.97, 323.6 5.75, 325 19.75 M325 19.75 C323.09 32.23, 324.84 45.36, 325 59.25 M325 19.75 C324.24 30.93, 325.03 43.18, 325 59.25 M325 59.25 C326.99 71.96, 317.19 78.94, 305.25 79 M325 59.25 C325.33 73.59, 318.91 79.49, 305.25 79 M305.25 79 C229.9 79.53, 151.51 78.87, 19.75 79 M305.25 79 C202.77 81.08, 99.83 80.41, 19.75 79 M19.75 79 C6.04 78.87, 1.34 74.11, 0 59.25 M19.75 79 C6.1 80.4, -0.12 74.48, 0 59.25 M0 59.25 C2.05 49.63, 0.49 36.51, 0 19.75 M0 59.25 C0.45 44.63, 0.2 31.14, 0 19.75 M0 19.75 C-1.56 6.95, 7.66 -1.78, 19.75 0 M0 19.75 C-1.29 8.25, 5.69 -1.96, 19.75 0" stroke="#000000" stroke-width="1" fill="none"></path></g><g transform="translate(91.211181640625 684.1484084293805) rotate(0 110.5 12.5)"><text x="110.5" y="18" font-family="Virgil, Segoe UI Emoji" font-size="20px" fill="#000000" text-anchor="middle" style="white-space: pre;" direction="ltr">ftgo-consumer-logic-api</text></g><g stroke-linecap="round" transform="translate(40.08441162109375 754.6721511051618) rotate(0 162.5 39.5)"><path d="M19.75 0 M19.75 0 C85.68 1.18, 154.76 0.52, 305.25 0 M19.75 0 C86.66 -0.3, 151.74 -0.6, 305.25 0 M305.25 0 C319.05 0.53, 323.38 5.87, 325 19.75 M305.25 0 C319.21 0.89, 323.85 6.42, 325 19.75 M325 19.75 C323.07 26.45, 325.14 36.5, 325 59.25 M325 19.75 C323.97 31.02, 325.3 42.96, 325 59.25 M325 59.25 C326.25 73.4, 318.51 79.12, 305.25 79 M325 59.25 C326.28 70.52, 316.63 77.61, 305.25 79 M305.25 79 C201.83 78.46, 102.36 77.35, 19.75 79 M305.25 79 C242.74 76.68, 181.87 77.4, 19.75 79 M19.75 79 C6.63 78.7, 0.13 73.45, 0 59.25 M19.75 79 C8.48 78.79, 0.74 71.56, 0 59.25 M0 59.25 C1.55 50.11, -0.01 36, 0 19.75 M0 59.25 C1.04 44.31, -0.64 30.78, 0 19.75 M0 19.75 C-0.72 6.55, 6.79 -0.95, 19.75 0 M0 19.75 C0.63 6.46, 5.91 -0.48, 19.75 0" stroke="#000000" stroke-width="1" fill="none"></path></g><g transform="translate(87.08441162109375 781.6721511051618) rotate(0 115.5 12.5)"><text x="115.5" y="18" font-family="Virgil, Segoe UI Emoji" font-size="20px" fill="#000000" text-anchor="middle" style="white-space: pre;" direction="ltr">ftgo-consumer-outbound</text></g><g stroke-linecap="round" transform="translate(41.815673828125 854.4437575504743) rotate(0 162.5 39.5)"><path d="M19.75 0 M19.75 0 C125.81 3.52, 229.54 1.84, 305.25 0 M19.75 0 C77.47 1.52, 134.98 1.64, 305.25 0 M305.25 0 C317.54 1.7, 326.94 4.91, 325 19.75 M305.25 0 C316.45 1.75, 323.67 6.75, 325 19.75 M325 19.75 C325.5 30.89, 324.87 45.51, 325 59.25 M325 19.75 C326.11 33.75, 325.69 47.58, 325 59.25 M325 59.25 C325.67 72.04, 317.62 78.91, 305.25 79 M325 59.25 C326.42 72.54, 316.63 79.67, 305.25 79 M305.25 79 C224.31 78.81, 141.24 78.92, 19.75 79 M305.25 79 C242.34 80.04, 177.95 80.43, 19.75 79 M19.75 79 C7.64 77.88, 0 71.05, 0 59.25 M19.75 79 C5.02 79.25, 1.73 73.23, 0 59.25 M0 59.25 C2.34 48.34, -1.43 37.98, 0 19.75 M0 59.25 C-0.19 47.43, -0.77 37.46, 0 19.75 M0 19.75 C0.87 8.11, 7.97 -1.68, 19.75 0 M0 19.75 C0.02 4.88, 6.47 -1.04, 19.75 0" stroke="#000000" stroke-width="1" fill="none"></path></g><g transform="translate(94.815673828125 881.4437575504743) rotate(0 109.5 12.5)"><text x="109.5" y="18" font-family="Virgil, Segoe UI Emoji" font-size="20px" fill="#000000" text-anchor="middle" style="white-space: pre;" direction="ltr">ftgo-consumer-starter</text></g><g stroke-linecap="round" transform="translate(662.1347045898438 212.77533103680238) rotate(0 191.5 372)"><path d="M32 0 M32 0 C143.52 2.43, 256.32 2.43, 351 0 M32 0 C143.98 0.42, 254.85 -0.17, 351 0 M351 0 C374.13 -0.45, 381.56 12.51, 383 32 M351 0 C374.37 -0.81, 383.47 9.99, 383 32 M383 32 C383.26 216.06, 383.23 399.94, 383 712 M383 32 C382.6 286.09, 383.13 539.75, 383 712 M383 712 C382.93 731.75, 372.81 742.09, 351 744 M383 712 C381.19 731.04, 370.43 742.89, 351 744 M351 744 C282.47 745.11, 214.5 745.38, 32 744 M351 744 C261.96 743.22, 173.83 743.18, 32 744 M32 744 C10.94 743.5, -0.32 733.44, 0 712 M32 744 C9.22 744.46, 0.88 731.58, 0 712 M0 712 C0.36 570.49, 0.19 428.57, 0 32 M0 712 C1.03 572.26, 1.59 432.49, 0 32 M0 32 C-1.11 12.5, 12.27 0.8, 32 0 M0 32 C-1.68 12.06, 11.77 0.23, 32 0" stroke="#000000" stroke-width="1" fill="none"></path></g><g transform="translate(720.1347045898438 212.77533103680238) rotate(0 133.5 17.5)"><text x="133.5" y="25" font-family="Virgil, Segoe UI Emoji" font-size="28px" fill="#000000" text-anchor="middle" style="white-space: pre;" direction="ltr">ftgo-courier-service</text></g><g stroke-linecap="round" transform="translate(690.5285034179688 279.85739280438054) rotate(0 162.5 39.5)"><path d="M19.75 0 M19.75 0 C77.67 -0.15, 138.43 0.76, 305.25 0 M19.75 0 C105.37 -1.49, 191.83 -1.48, 305.25 0 M305.25 0 C316.98 1.84, 326.77 5.88, 325 19.75 M305.25 0 C318.88 -0.67, 324.32 7.29, 325 19.75 M325 19.75 C323.21 32.69, 326.19 44.98, 325 59.25 M325 19.75 C325.24 32.18, 324.66 45.7, 325 59.25 M325 59.25 C325.47 70.51, 316.84 77, 305.25 79 M325 59.25 C323.09 71.31, 316.47 79.51, 305.25 79 M305.25 79 C211.39 80.33, 115.48 80.29, 19.75 79 M305.25 79 C229.78 79.07, 154.7 78.9, 19.75 79 M19.75 79 C6.27 79.11, -1.25 72.82, 0 59.25 M19.75 79 C7.47 77.25, -2.11 72.67, 0 59.25 M0 59.25 C0.9 44.91, -2.22 30, 0 19.75 M0 59.25 C0.9 46.39, -0.22 34.32, 0 19.75 M0 19.75 C1.6 7.38, 5.12 1.21, 19.75 0 M0 19.75 C1.11 6.81, 5.21 -2.19, 19.75 0" stroke="#000000" stroke-width="1" fill="none"></path></g><g transform="translate(757.5285034179688 306.85739280438054) rotate(0 95.5 12.5)"><text x="95.5" y="18" font-family="Virgil, Segoe UI Emoji" font-size="20px" fill="#000000" text-anchor="middle" style="white-space: pre;" direction="ltr">ftgo-courier-common</text></g><g stroke-linecap="round" transform="translate(691.17431640625 370.9414382145368) rotate(0 162.5 39.5)"><path d="M19.75 0 M19.75 0 C113.02 0.75, 204.8 0.59, 305.25 0 M19.75 0 C123.41 0.33, 225.17 1.2, 305.25 0 M305.25 0 C320.19 -0.7, 325.4 6, 325 19.75 M305.25 0 C317.74 0.71, 325.46 4.94, 325 19.75 M325 19.75 C326.17 32.24, 325.47 43.32, 325 59.25 M325 19.75 C325.18 31.08, 325.45 43.03, 325 59.25 M325 59.25 C323.43 70.42, 316.76 78.04, 305.25 79 M325 59.25 C323.05 72.93, 319.15 79.19, 305.25 79 M305.25 79 C211.12 80.7, 117.13 78.91, 19.75 79 M305.25 79 C218.58 78.77, 131.58 79.01, 19.75 79 M19.75 79 C5.33 79.4, 0.77 70.89, 0 59.25 M19.75 79 C4.48 79.25, 1.32 74.32, 0 59.25 M0 59.25 C-2.13 45.59, 0.3 32.22, 0 19.75 M0 59.25 C-0.78 48.07, 0.58 35.46, 0 19.75 M0 19.75 C-1.46 7.8, 7.55 0.2, 19.75 0 M0 19.75 C-1.38 4.39, 5.83 -1.36, 19.75 0" stroke="#000000" stroke-width="1" fill="none"></path></g><g transform="translate(757.67431640625 397.9414382145368) rotate(0 96 12.5)"><text x="96" y="18" font-family="Virgil, Segoe UI Emoji" font-size="20px" fill="#000000" text-anchor="middle" style="white-space: pre;" direction="ltr">ftgo-courier-inbound</text></g><g stroke-linecap="round" transform="translate(690.6378173828125 465.32272483563054) rotate(0 162.5 39.5)"><path d="M19.75 0 M19.75 0 C112.37 -0.71, 205.91 -1.98, 305.25 0 M19.75 0 C98.18 1.19, 178.38 0.22, 305.25 0 M305.25 0 C318.82 -0.59, 324.41 7.2, 325 19.75 M305.25 0 C318.88 -1.65, 325.41 4.85, 325 19.75 M325 19.75 C326.06 30.62, 325.43 45.69, 325 59.25 M325 19.75 C325.22 26.95, 324.2 35.06, 325 59.25 M325 59.25 C323.34 71.45, 316.72 79.45, 305.25 79 M325 59.25 C325.73 72.61, 319.07 80.3, 305.25 79 M305.25 79 C205.53 78.85, 106.97 79.67, 19.75 79 M305.25 79 C219.97 78.5, 134.45 78.61, 19.75 79 M19.75 79 C7.35 77.47, -1.83 72.64, 0 59.25 M19.75 79 C7.91 80.91, 0.47 73.83, 0 59.25 M0 59.25 C0.92 46.1, 0.5 37.51, 0 19.75 M0 59.25 C1.02 47.54, -0.51 35.64, 0 19.75 M0 19.75 C0.96 6.78, 5.39 -1.9, 19.75 0 M0 19.75 C-0.75 5.22, 6.49 0.16, 19.75 0" stroke="#000000" stroke-width="1" fill="none"></path></g><g transform="translate(739.6378173828125 492.32272483563054) rotate(0 113.5 12.5)"><text x="113.5" y="18" font-family="Virgil, Segoe UI Emoji" font-size="20px" fill="#000000" text-anchor="middle" style="white-space: pre;" direction="ltr">ftgo-courier-inbound-api</text></g><g stroke-linecap="round" transform="translate(691.1454467773438 555.9748854801618) rotate(0 162.5 39.5)"><path d="M19.75 0 M19.75 0 C130.45 -1.76, 238.96 -0.24, 305.25 0 M19.75 0 C99.63 -2.26, 178.32 -2.21, 305.25 0 M305.25 0 C317.83 0.62, 325.4 5.15, 325 19.75 M305.25 0 C318.83 -1.73, 325.33 8.28, 325 19.75 M325 19.75 C325.29 32.56, 323.28 43.11, 325 59.25 M325 19.75 C324.31 27.47, 324.26 36.7, 325 59.25 M325 59.25 C323.3 72.86, 319.05 79.17, 305.25 79 M325 59.25 C325.66 73.71, 319.51 78.48, 305.25 79 M305.25 79 C206.87 77.11, 108.35 77.61, 19.75 79 M305.25 79 C226.25 79.27, 148.49 78.54, 19.75 79 M19.75 79 C4.75 79.22, 1.15 74.07, 0 59.25 M19.75 79 C7.05 80.41, -0.25 70.24, 0 59.25 M0 59.25 C0.02 50.5, 0.02 38.42, 0 19.75 M0 59.25 C-1.05 44.39, 0.16 28.41, 0 19.75 M0 19.75 C-1.2 4.68, 5.93 -1.18, 19.75 0 M0 19.75 C-0.09 6.74, 4.94 -2.29, 19.75 0" stroke="#000000" stroke-width="1" fill="none"></path></g><g transform="translate(771.1454467773438 582.9748854801618) rotate(0 82.5 12.5)"><text x="82.5" y="18" font-family="Virgil, Segoe UI Emoji" font-size="20px" fill="#000000" text-anchor="middle" style="white-space: pre;" direction="ltr">ftgo-courier-logic</text></g><g stroke-linecap="round" transform="translate(691.3458862304688 651.4894728825055) rotate(0 162.5 39.5)"><path d="M19.75 0 M19.75 0 C126.2 1.58, 233.01 -0.87, 305.25 0 M19.75 0 C131.87 0.54, 243.45 0.99, 305.25 0 M305.25 0 C318.82 -1.43, 325.36 5.08, 325 19.75 M305.25 0 C318.75 1.69, 324.92 7.47, 325 19.75 M325 19.75 C323.15 28.46, 323.44 37.8, 325 59.25 M325 19.75 C323.86 27.35, 323.84 36.14, 325 59.25 M325 59.25 C325.64 72.59, 318.99 80.13, 305.25 79 M325 59.25 C326.09 71.9, 319.45 78.17, 305.25 79 M305.25 79 C240.64 78.78, 175.71 78.34, 19.75 79 M305.25 79 C218.3 78.86, 130.07 79.52, 19.75 79 M19.75 79 C7.73 80.66, 0.41 73.64, 0 59.25 M19.75 79 C6.34 76.83, -1.16 73.04, 0 59.25 M0 59.25 C0.11 49.69, 1.81 43.96, 0 19.75 M0 59.25 C0.77 45.92, -0.31 31.44, 0 19.75 M0 19.75 C-0.65 5.4, 6.5 0.14, 19.75 0 M0 19.75 C-1.65 4.29, 5.17 0.99, 19.75 0" stroke="#000000" stroke-width="1" fill="none"></path></g><g transform="translate(753.3458862304688 678.4894728825055) rotate(0 100.5 12.5)"><text x="100.5" y="18" font-family="Virgil, Segoe UI Emoji" font-size="20px" fill="#000000" text-anchor="middle" style="white-space: pre;" direction="ltr">ftgo-courier-logic-api</text></g><g stroke-linecap="round" transform="translate(692.2191162109375 749.0132155582868) rotate(0 162.5 39.5)"><path d="M19.75 0 M19.75 0 C102.15 -3.03, 186.62 -0.6, 305.25 0 M19.75 0 C95.17 0.87, 171.19 0.09, 305.25 0 M305.25 0 C318.78 -1.51, 325.29 8.06, 325 19.75 M305.25 0 C318.34 0.88, 323.22 6.74, 325 19.75 M325 19.75 C323.04 34.24, 322.72 46.21, 325 59.25 M325 19.75 C323.82 27.88, 324.99 35.65, 325 59.25 M325 59.25 C325.57 73.54, 319.36 78.55, 305.25 79 M325 59.25 C326.03 71.58, 316.72 79.09, 305.25 79 M305.25 79 C224.84 79.05, 145.27 78.34, 19.75 79 M305.25 79 C213.14 77.43, 122.85 77.98, 19.75 79 M19.75 79 C6.99 80.23, -0.22 70.53, 0 59.25 M19.75 79 C5.42 79.62, -1.98 72.56, 0 59.25 M0 59.25 C1.81 46.81, 0.77 29.71, 0 19.75 M0 59.25 C-0.79 44.05, -0.52 30.16, 0 19.75 M0 19.75 C-0.08 6.72, 5.15 -1.99, 19.75 0 M0 19.75 C-1.42 7.57, 6.69 2.23, 19.75 0" stroke="#000000" stroke-width="1" fill="none"></path></g><g transform="translate(748.7191162109375 776.0132155582868) rotate(0 106 12.5)"><text x="106" y="18" font-family="Virgil, Segoe UI Emoji" font-size="20px" fill="#000000" text-anchor="middle" style="white-space: pre;" direction="ltr">ftgo-courier-outbound</text></g><g stroke-linecap="round" transform="translate(693.9503784179688 848.7848220035993) rotate(0 162.5 39.5)"><path d="M19.75 0 M19.75 0 C132.44 2.9, 241.8 1.86, 305.25 0 M19.75 0 C97.19 -1.21, 174.46 -1.24, 305.25 0 M305.25 0 C318.71 1.47, 324.93 7.35, 325 19.75 M305.25 0 C316.63 0.16, 326.26 4.43, 325 19.75 M325 19.75 C322.78 29.89, 322.69 41.51, 325 59.25 M325 19.75 C324.98 29.78, 324.95 40.21, 325 59.25 M325 59.25 C325.95 71.97, 319.31 78.28, 305.25 79 M325 59.25 C323.3 72.51, 317.96 78.96, 305.25 79 M305.25 79 C215.82 77.71, 126.53 79.24, 19.75 79 M305.25 79 C241.81 79.87, 177.66 79.7, 19.75 79 M19.75 79 C6.37 77.11, -1.01 72.96, 0 59.25 M19.75 79 C4.6 79.14, 1.28 72.57, 0 59.25 M0 59.25 C0.44 48.14, 0.85 40.91, 0 19.75 M0 59.25 C-0.09 46.42, 0.2 34.85, 0 19.75 M0 19.75 C-1.43 4.59, 5.35 0.86, 19.75 0 M0 19.75 C0.1 8.81, 5.32 1.84, 19.75 0" stroke="#000000" stroke-width="1" fill="none"></path></g><g transform="translate(756.9503784179688 875.7848220035993) rotate(0 99.5 12.5)"><text x="99.5" y="18" font-family="Virgil, Segoe UI Emoji" font-size="20px" fill="#000000" text-anchor="middle" style="white-space: pre;" direction="ltr">ftgo-courier-starter</text></g><g stroke-linecap="round" transform="translate(328.9951171875 110.43008567547426) rotate(0 191.5 26.5)"><path d="M13.25 0 M13.25 0 C117.5 -0.78, 220.75 -1.74, 369.75 0 M13.25 0 C120.63 1.56, 226.87 0.98, 369.75 0 M369.75 0 C380.31 -0.57, 382.39 3.38, 383 13.25 M369.75 0 C380.77 0.3, 381.71 5.32, 383 13.25 M383 13.25 C383 20.28, 384.69 26.76, 383 39.75 M383 13.25 C383.35 20.93, 383 29.32, 383 39.75 M383 39.75 C384.32 49.16, 376.97 54.66, 369.75 53 M383 39.75 C385.03 48.07, 377.06 53.72, 369.75 53 M369.75 53 C271.76 56.35, 174.51 55.38, 13.25 53 M369.75 53 C297.34 50.74, 224.15 50.84, 13.25 53 M13.25 53 C3.37 53.63, 0.79 50.06, 0 39.75 M13.25 53 C3.83 55.16, -0.29 46.63, 0 39.75 M0 39.75 C0.79 34.41, 1.72 27.26, 0 13.25 M0 39.75 C-1.03 31.87, -0.76 23.7, 0 13.25 M0 13.25 C0.61 4.37, 5.07 -1.1, 13.25 0 M0 13.25 C1.39 3.22, 2.38 2.09, 13.25 0" stroke="#000000" stroke-width="1" fill="none"></path></g><g transform="translate(376.4951171875 115.43008567547426) rotate(0 144 17.5)"><text x="144" y="25" font-family="Virgil, Segoe UI Emoji" font-size="28px" fill="#000000" text-anchor="middle" style="white-space: pre;" direction="ltr">ftgo-gateway-service</text></g><g stroke-linecap="round" transform="translate(342.18182373046875 371.1614089176618) rotate(0 56.194488525390625 45.735931396484375)"><path d="M5.43 6.05 C5.43 6.05, 5.43 6.05, 5.43 6.05 M5.43 6.05 C5.43 6.05, 5.43 6.05, 5.43 6.05 M0.58 17.73 C5.42 11.49, 7.76 9.43, 13.7 2.63 M0.58 17.73 C4.28 13.37, 6.87 10.26, 13.7 2.63 M0.32 24.12 C9.36 16.65, 14.28 7.53, 20 1.48 M0.32 24.12 C5.06 17.05, 10.94 12.7, 20 1.48 M0.71 29.77 C6.47 21.6, 14.55 15.9, 24.98 1.84 M0.71 29.77 C8.3 22.19, 17.02 12.34, 24.98 1.84 M0.45 36.17 C9.92 27.63, 18.28 16.8, 29.97 2.2 M0.45 36.17 C6.74 29.4, 12.55 21.48, 29.97 2.2 M0.84 41.81 C11.91 29.08, 20.38 20.5, 35.61 1.81 M0.84 41.81 C11.83 29.49, 22.98 17.86, 35.61 1.81 M0.58 48.21 C12.23 34.64, 25.21 19.74, 40.6 2.17 M0.58 48.21 C15.19 31.42, 30 14.05, 40.6 2.17 M0.32 54.6 C13.8 40.21, 26.03 28.1, 46.24 1.77 M0.32 54.6 C13.47 39.56, 25.67 25.3, 46.24 1.77 M0.72 60.25 C22.4 36.17, 38.97 15.26, 51.23 2.13 M0.72 60.25 C15.77 43.72, 31.29 25.43, 51.23 2.13 M0.45 66.64 C16.57 49.62, 30.26 29.31, 56.87 1.74 M0.45 66.64 C22.49 41.16, 43.92 17.39, 56.87 1.74 M0.85 72.29 C16.89 56.38, 29.65 39.45, 61.86 2.1 M0.85 72.29 C16.95 53.15, 33.74 32.79, 61.86 2.1 M2.55 76.42 C23.73 51.04, 49.86 22.84, 67.5 1.71 M2.55 76.42 C26.45 48.63, 49.47 23, 67.5 1.71 M4.92 79.8 C28.93 53.38, 49.96 25.56, 72.49 2.07 M4.92 79.8 C18.64 63.47, 33.18 47.46, 72.49 2.07 M6.62 83.93 C33.73 52.14, 61 18.56, 77.48 2.43 M6.62 83.93 C22.58 67.34, 38.1 49.99, 77.48 2.43 M8.33 88.07 C25.4 69.67, 44.28 49.76, 83.12 2.03 M8.33 88.07 C34.12 58.83, 59.62 28.7, 83.12 2.03 M12.01 89.94 C39.62 57.1, 70.22 21.71, 88.11 2.39 M12.01 89.94 C38.45 60.01, 65.9 28.78, 88.11 2.39 M15.68 91.81 C35.92 66.54, 59.42 38.76, 95.06 0.49 M15.68 91.81 C42.77 59.5, 69.78 27.62, 95.06 0.49 M20.01 92.92 C40.46 70.69, 55.96 50.27, 98.74 2.36 M20.01 92.92 C38.09 71.79, 56.5 51.35, 98.74 2.36 M25 93.28 C49.59 64.2, 73.45 36.93, 102.41 4.23 M25 93.28 C42.66 72.01, 60.87 50.51, 102.41 4.23 M30.64 92.89 C52.96 65.04, 76.31 40.98, 106.74 5.34 M30.64 92.89 C55.64 62.5, 80.96 34.02, 106.74 5.34 M35.63 93.25 C50.99 74.03, 67.77 54.63, 109.76 7.97 M35.63 93.25 C53.02 73.01, 72.66 51, 109.76 7.97 M40.62 93.61 C57.76 72.37, 78.84 49.93, 111.47 12.1 M40.62 93.61 C55.9 75.04, 71.17 58.33, 111.47 12.1 M46.26 93.21 C65.06 71.23, 82.88 51.14, 113.83 15.48 M46.26 93.21 C70.03 65.43, 95.76 38.76, 113.83 15.48 M51.25 93.57 C67.78 69.79, 86.16 49.22, 112.26 23.39 M51.25 93.57 C74.63 68.15, 95.69 43.24, 112.26 23.39 M56.89 93.18 C70.34 80.76, 82.3 63.71, 112.65 29.03 M56.89 93.18 C77.14 69.59, 97.48 45.13, 112.65 29.03 M61.88 93.54 C74.58 80.76, 87.5 64.86, 112.39 35.43 M61.88 93.54 C73.39 80.35, 84.74 66.83, 112.39 35.43 M67.52 93.14 C79.7 78.18, 91.16 64.67, 112.13 41.82 M67.52 93.14 C77.49 81.53, 86.39 71.02, 112.13 41.82 M72.51 93.5 C83.56 79.17, 96.55 67.71, 112.53 47.47 M72.51 93.5 C88.05 75.38, 101.98 58.67, 112.53 47.47 M78.15 93.11 C88.63 83.83, 97.17 70.03, 112.26 53.86 M78.15 93.11 C88.35 82.53, 99.16 70.26, 112.26 53.86 M83.14 93.47 C88.74 86.67, 96.43 78.27, 112 60.26 M83.14 93.47 C92.3 84.14, 101.19 73.96, 112 60.26 M90.09 91.57 C96.62 86.03, 101.12 77.18, 112.4 65.91 M90.09 91.57 C95.63 84.94, 103.55 78.14, 112.4 65.91 M95.73 91.17 C99.28 85.3, 102.66 82.1, 112.14 72.3 M95.73 91.17 C99.23 87.54, 103.04 82.8, 112.14 72.3 M100.72 91.53 C104.54 83.9, 108.98 78.39, 114.5 75.68 M100.72 91.53 C104.87 85.98, 109.52 81.23, 114.5 75.68 M6.04 86.03 C6.04 86.03, 6.04 86.03, 6.04 86.03 M6.04 86.03 C6.04 86.03, 6.04 86.03, 6.04 86.03 M17.72 90.89 C12.07 84.94, 7.97 82.91, 1.87 77.11 M17.72 90.89 C11.93 86.89, 8.49 81.4, 1.87 77.11 M24.12 91.15 C16.07 86.33, 10.58 77.98, 2.23 72.12 M24.12 91.15 C15.41 85.15, 8.26 78.06, 2.23 72.12 M29.76 90.75 C23.66 86.43, 14.24 80.76, 1.84 66.48 M29.76 90.75 C20.62 82.48, 11.23 74.92, 1.84 66.48 M36.16 91.02 C22.92 79.44, 10.69 71.45, 2.2 61.49 M36.16 91.02 C25.99 82.54, 16.4 73.71, 2.2 61.49 M42.55 91.28 C33.86 84.06, 21.49 75.69, 1.8 55.85 M42.55 91.28 C25.97 77.41, 10.25 62.47, 1.8 55.85 M48.2 90.88 C34.6 79.13, 20.45 66.58, 2.16 50.86 M48.2 90.88 C34.19 77.98, 20.83 66.24, 2.16 50.86 M54.6 91.14 C41.92 77.69, 27.59 65.26, 1.77 45.22 M54.6 91.14 C42.78 81.23, 32.58 71, 1.77 45.22 M60.99 91.41 C42.09 71.47, 19.05 54.75, 2.13 40.23 M60.99 91.41 C44.71 77.46, 28.05 63.62, 2.13 40.23 M66.64 91.01 C52.53 77.47, 39.17 66.03, 1.73 34.59 M66.64 91.01 C42.9 70.69, 19.51 50.74, 1.73 34.59 M73.03 91.27 C45.31 66.67, 16.36 41.79, 2.09 29.6 M73.03 91.27 C54.95 74.94, 35.7 58, 2.09 29.6 M78.68 90.88 C53.54 72.23, 31.41 50.94, 1.7 23.96 M78.68 90.88 C57.01 69.93, 34.66 51.89, 1.7 23.96 M85.08 91.14 C52.94 65.05, 21.46 36.18, 0.55 17.66 M85.08 91.14 C66.95 73.76, 48.55 57.66, 0.55 17.66 M90.72 90.74 C64.72 68.93, 37.49 47.61, 2.42 13.99 M90.72 90.74 C59.05 62.28, 27.95 35.09, 2.42 13.99 M95.61 89.69 C77.45 70.56, 57.16 56.53, 3.53 9.65 M95.61 89.69 C72.83 67.4, 47.94 48.01, 3.53 9.65 M100.5 88.64 C71.68 65.79, 48.96 39.88, 5.4 5.98 M100.5 88.64 C66.36 58.32, 31.92 27.12, 5.4 5.98 M103.87 86.28 C80.52 67.44, 60.72 46.96, 8.03 2.96 M103.87 86.28 C66.8 52.53, 31.59 22.26, 8.03 2.96 M108.01 84.57 C78.21 57.58, 43.6 30.52, 11.4 0.6 M108.01 84.57 C82.08 63.54, 58.96 41.87, 11.4 0.6 M109.88 80.9 C78.16 54.29, 48.53 27.28, 15.54 -1.11 M109.88 80.9 C75.66 49.81, 40.17 17.8, 15.54 -1.11 M110.99 76.57 C92.83 60.97, 77 47.4, 22.69 -0.19 M110.99 76.57 C76.77 48.46, 43.84 19.61, 22.69 -0.19 M112.86 72.89 C79.27 42.36, 44.7 14.81, 29.09 0.07 M112.86 72.89 C85.79 49.83, 59.45 26.02, 29.09 0.07 M113.22 67.91 C91.31 49.83, 72.78 29.99, 35.49 0.33 M113.22 67.91 C94.92 52.81, 76.32 35.88, 35.49 0.33 M112.83 62.26 C89.68 40.47, 67.24 19.69, 41.13 -0.06 M112.83 62.26 C94.86 46.77, 77.79 32.59, 41.13 -0.06 M113.19 57.28 C88.09 39.33, 67.02 16.15, 47.53 0.2 M113.19 57.28 C89.36 35.3, 63.98 15.08, 47.53 0.2 M112.79 51.63 C98.7 40.54, 88.59 30.7, 53.17 -0.2 M112.79 51.63 C95.43 36.52, 76.89 20.4, 53.17 -0.2 M113.15 46.65 C96.5 31.41, 79.24 17.96, 59.57 0.07 M113.15 46.65 C100.39 35.63, 86.33 23.31, 59.57 0.07 M113.51 41.66 C99.92 29.67, 83.34 15.84, 65.97 0.33 M113.51 41.66 C103.76 32.08, 93.61 24.32, 65.97 0.33 M113.12 36.02 C102.53 23.76, 89.16 15.29, 71.61 -0.07 M113.12 36.02 C97.75 23.11, 84.6 10.49, 71.61 -0.07 M113.48 31.03 C100.76 21.09, 90.74 9.92, 78.01 0.19 M113.48 31.03 C100.31 18.41, 85.67 7.84, 78.01 0.19 M113.08 25.39 C108.51 20.87, 100.47 14.85, 84.4 0.46 M113.08 25.39 C103.17 17.94, 94.3 10.24, 84.4 0.46 M114.2 21.05 C108.44 15.64, 101.77 12.27, 90.05 0.06 M114.2 21.05 C105.68 12.79, 95.65 5.48, 90.05 0.06 M113.05 14.76 C107.92 9.07, 105.76 6.06, 95.69 -0.33 M113.05 14.76 C110.01 11.31, 104.73 7.73, 95.69 -0.33" stroke="#82c91e" stroke-width="0.5" fill="none"></path><path d="M22.87 0 M22.87 0 C46.83 -0.39, 72.98 0.18, 89.52 0 M22.87 0 C41.45 -0.96, 57.94 -0.86, 89.52 0 M89.52 0 C104.07 -0.93, 110.41 6.35, 112.39 22.87 M89.52 0 C104.98 0.04, 114.57 5.94, 112.39 22.87 M112.39 22.87 C110.51 32.45, 113.64 46.17, 112.39 68.6 M112.39 22.87 C112.54 39.15, 112.18 55.21, 112.39 68.6 M112.39 68.6 C113.08 84.63, 105.13 92.17, 89.52 91.47 M112.39 68.6 C114.21 84.82, 105.61 92.63, 89.52 91.47 M89.52 91.47 C66.96 90.14, 43.58 93.19, 22.87 91.47 M89.52 91.47 C75.27 92, 59.33 91.99, 22.87 91.47 M22.87 91.47 C6.49 93.14, 0.55 84.24, 0 68.6 M22.87 91.47 C7.51 90.03, 1.56 86.12, 0 68.6 M0 68.6 C-1.07 51.97, -0.62 31.77, 0 22.87 M0 68.6 C0.63 50.17, 0.73 32.55, 0 22.87 M0 22.87 C0.86 7.32, 6.99 0.3, 22.87 0 M0 22.87 C1.83 7.42, 9.78 0.21, 22.87 0" stroke="#000000" stroke-width="1" fill="none"></path></g><g transform="translate(359.3763122558594 404.39734031414616) rotate(0 39 12.5)"><text x="39" y="18" font-family="Virgil, Segoe UI Emoji" font-size="20px" fill="#000000" text-anchor="middle" style="white-space: pre;" direction="ltr">    API</text></g><g stroke-linecap="round" transform="translate(593.2640075683594 367.42712547039616) rotate(0 56.194488525390625 45.735931396484375)"><path d="M5.43 6.05 C5.43 6.05, 5.43 6.05, 5.43 6.05 M5.43 6.05 C5.43 6.05, 5.43 6.05, 5.43 6.05 M0.58 17.73 C3.52 12.73, 9.42 9, 13.7 2.63 M0.58 17.73 C4.24 14.3, 7.32 10.43, 13.7 2.63 M0.32 24.12 C5.61 18.78, 9.27 13.1, 20 1.48 M0.32 24.12 C4 19.41, 8.69 13.04, 20 1.48 M0.71 29.77 C10.68 19.39, 20.24 9.04, 24.98 1.84 M0.71 29.77 C10.61 20.02, 18.46 7.62, 24.98 1.84 M0.45 36.17 C8.61 27, 18.55 13.66, 29.97 2.2 M0.45 36.17 C5.51 29.32, 12.48 22.41, 29.97 2.2 M0.84 41.81 C12.44 29.81, 23.71 14.65, 35.61 1.81 M0.84 41.81 C14.08 26.62, 28.52 11.01, 35.61 1.81 M0.58 48.21 C11.68 35.53, 23.6 21.26, 40.6 2.17 M0.58 48.21 C13.33 33.59, 27.29 17.14, 40.6 2.17 M0.32 54.6 C14.49 37.68, 31.36 18.03, 46.24 1.77 M0.32 54.6 C11.86 41.09, 21.42 29.11, 46.24 1.77 M0.72 60.25 C16.06 45.03, 27.66 27.29, 51.23 2.13 M0.72 60.25 C19.74 37.69, 39.4 15.17, 51.23 2.13 M0.45 66.64 C16.02 52.23, 30.43 34.97, 56.87 1.74 M0.45 66.64 C21.32 43.23, 41.69 21.06, 56.87 1.74 M0.85 72.29 C17.07 52.21, 33.4 30.37, 61.86 2.1 M0.85 72.29 C23.1 47.79, 43.61 21.9, 61.86 2.1 M2.55 76.42 C24.17 51.04, 45.2 24.85, 67.5 1.71 M2.55 76.42 C28.11 47.81, 54.26 18.1, 67.5 1.71 M4.92 79.8 C17.82 63.91, 33.95 45.51, 72.49 2.07 M4.92 79.8 C18.8 64.32, 32.53 49, 72.49 2.07 M6.62 83.93 C25.58 61.03, 41.51 43.64, 77.48 2.43 M6.62 83.93 C25.83 62.38, 46.01 39.05, 77.48 2.43 M8.33 88.07 C25.17 68.62, 40.63 48.38, 83.12 2.03 M8.33 88.07 C31.33 61.22, 54.26 33.96, 83.12 2.03 M12.01 89.94 C39.63 55.59, 67.5 25.46, 88.11 2.39 M12.01 89.94 C35.67 63.5, 61.19 35.4, 88.11 2.39 M15.68 91.81 C44.93 55.22, 76.99 18.26, 95.06 0.49 M15.68 91.81 C31.13 72.88, 48.76 54.06, 95.06 0.49 M20.01 92.92 C39.32 72.4, 54.19 52.48, 98.74 2.36 M20.01 92.92 C46.66 62.12, 73.59 32.65, 98.74 2.36 M25 93.28 C44.18 71.66, 62.12 50.26, 102.41 4.23 M25 93.28 C46.91 68.59, 66.57 44.08, 102.41 4.23 M30.64 92.89 C49.37 72.79, 67.75 53.12, 106.74 5.34 M30.64 92.89 C56.2 61.94, 81.27 33.34, 106.74 5.34 M35.63 93.25 C52.84 77.34, 67.32 58.07, 109.76 7.97 M35.63 93.25 C52.33 73.6, 66.74 56.33, 109.76 7.97 M40.62 93.61 C54.79 76.01, 69.86 61.33, 111.47 12.1 M40.62 93.61 C56.22 75.67, 72.78 55.89, 111.47 12.1 M46.26 93.21 C72.67 63.08, 99.58 32.01, 113.83 15.48 M46.26 93.21 C73.63 62.47, 100.65 31.82, 113.83 15.48 M51.25 93.57 C63.53 79.37, 78.34 64.92, 112.26 23.39 M51.25 93.57 C67.77 72.54, 85.98 53.02, 112.26 23.39 M56.89 93.18 C67.76 78.21, 77.36 66.32, 112.65 29.03 M56.89 93.18 C73.59 73.16, 90.3 54.03, 112.65 29.03 M61.88 93.54 C80.16 75.39, 93.86 57.07, 112.39 35.43 M61.88 93.54 C77.43 74.02, 94.47 56.78, 112.39 35.43 M67.52 93.14 C79.39 78.69, 92.51 65.11, 112.13 41.82 M67.52 93.14 C79.99 76.93, 93.83 63.42, 112.13 41.82 M72.51 93.5 C85.17 79.92, 97.54 64.28, 112.53 47.47 M72.51 93.5 C84.3 81.03, 93.23 69.52, 112.53 47.47 M78.15 93.11 C90.34 76.11, 103.91 63.62, 112.26 53.86 M78.15 93.11 C86.09 83.13, 96.07 72.07, 112.26 53.86 M83.14 93.47 C89.58 83.75, 99.5 74.26, 112 60.26 M83.14 93.47 C89.8 86.66, 96.56 78.22, 112 60.26 M90.09 91.57 C97.67 81.69, 107.45 72.46, 112.4 65.91 M90.09 91.57 C96.88 83.56, 103.29 77.36, 112.4 65.91 M95.73 91.17 C99.02 84.35, 105.63 81.42, 112.14 72.3 M95.73 91.17 C99.77 86.68, 103.67 82.54, 112.14 72.3 M100.72 91.53 C104.95 85.14, 109.16 78.94, 114.5 75.68 M100.72 91.53 C104.96 87.42, 108.12 82.31, 114.5 75.68 M6.04 86.03 C6.04 86.03, 6.04 86.03, 6.04 86.03 M6.04 86.03 C6.04 86.03, 6.04 86.03, 6.04 86.03 M17.72 90.89 C13.55 87.93, 4.81 81.46, 1.87 77.11 M17.72 90.89 C12.23 86.59, 6.82 81.83, 1.87 77.11 M24.12 91.15 C16.77 85.82, 8.92 76.65, 2.23 72.12 M24.12 91.15 C19.34 87.01, 13.38 81.77, 2.23 72.12 M29.76 90.75 C23.43 84.17, 16.13 79.94, 1.84 66.48 M29.76 90.75 C20.79 83.74, 12.25 76.21, 1.84 66.48 M36.16 91.02 C29.21 85.47, 20.32 79.76, 2.2 61.49 M36.16 91.02 C21.6 78.14, 8.78 67.55, 2.2 61.49 M42.55 91.28 C29.48 77.75, 14.59 65.8, 1.8 55.85 M42.55 91.28 C29.26 79.78, 16.73 68.75, 1.8 55.85 M48.2 90.88 C31.72 78.05, 15.75 62.73, 2.16 50.86 M48.2 90.88 C31.17 76.66, 13.89 60.63, 2.16 50.86 M54.6 91.14 C32.32 73.11, 11.83 57.73, 1.77 45.22 M54.6 91.14 C36.98 74.89, 18.8 60.23, 1.77 45.22 M60.99 91.41 C39.41 72.65, 19.14 52.75, 2.13 40.23 M60.99 91.41 C42.24 74.53, 24.16 59.88, 2.13 40.23 M66.64 91.01 C51.43 77, 35.44 63.8, 1.73 34.59 M66.64 91.01 C46.43 73.94, 27.46 57.3, 1.73 34.59 M73.03 91.27 C56.89 76.7, 42.62 65.37, 2.09 29.6 M73.03 91.27 C51.88 73.73, 30.84 56.74, 2.09 29.6 M78.68 90.88 C48.32 64.33, 19.52 39.49, 1.7 23.96 M78.68 90.88 C63.38 75.85, 45.62 61, 1.7 23.96 M85.08 91.14 C57.35 67.88, 34.08 48.01, 0.55 17.66 M85.08 91.14 C57.74 67.97, 31.43 44.72, 0.55 17.66 M90.72 90.74 C66.01 69.09, 45.69 50.88, 2.42 13.99 M90.72 90.74 C60.49 66.1, 32.26 39.97, 2.42 13.99 M95.61 89.69 C63.26 63.72, 35.85 36.26, 3.53 9.65 M95.61 89.69 C77.23 72.93, 57.1 57.34, 3.53 9.65 M100.5 88.64 C71.35 63.81, 44.39 38.48, 5.4 5.98 M100.5 88.64 C74 65.24, 47.88 43.79, 5.4 5.98 M103.87 86.28 C70.79 57.71, 36.53 28, 8.03 2.96 M103.87 86.28 C80 65.93, 57.04 46.48, 8.03 2.96 M108.01 84.57 C76.08 59.45, 43.87 30.38, 11.4 0.6 M108.01 84.57 C80.21 62.11, 52.46 37.82, 11.4 0.6 M109.88 80.9 C80.54 57.98, 56.65 31.86, 15.54 -1.11 M109.88 80.9 C82.26 57.7, 55.43 34, 15.54 -1.11 M110.99 76.57 C81.09 51.35, 53.91 26.59, 22.69 -0.19 M110.99 76.57 C79.98 48.72, 49.37 21.28, 22.69 -0.19 M112.86 72.89 C88.38 53.39, 63.84 29.26, 29.09 0.07 M112.86 72.89 C84.02 46.97, 55.7 23.07, 29.09 0.07 M113.22 67.91 C88.49 47.26, 66.54 27.57, 35.49 0.33 M113.22 67.91 C90.36 47.1, 66.01 27.04, 35.49 0.33 M112.83 62.26 C86.45 37.07, 56.87 13.44, 41.13 -0.06 M112.83 62.26 C87.01 40.62, 62.8 18.25, 41.13 -0.06 M113.19 57.28 C88.71 33.7, 60.32 13.67, 47.53 0.2 M113.19 57.28 C92.5 39.29, 71.25 21.9, 47.53 0.2 M112.79 51.63 C93.41 33.68, 73.84 18, 53.17 -0.2 M112.79 51.63 C89.66 30.65, 65.82 10.47, 53.17 -0.2 M113.15 46.65 C93.76 28.43, 74.58 14.26, 59.57 0.07 M113.15 46.65 C101.17 37.71, 92.02 29.06, 59.57 0.07 M113.51 41.66 C103 34.3, 93.96 21.92, 65.97 0.33 M113.51 41.66 C100.04 29.24, 86.14 18.76, 65.97 0.33 M113.12 36.02 C100.66 24.07, 86.37 11.38, 71.61 -0.07 M113.12 36.02 C99.86 24.92, 86.67 13.52, 71.61 -0.07 M113.48 31.03 C102.64 19.86, 92.29 10.58, 78.01 0.19 M113.48 31.03 C106.05 25.15, 98.81 17.88, 78.01 0.19 M113.08 25.39 C106.26 18.33, 99.67 12.05, 84.4 0.46 M113.08 25.39 C105.74 18.15, 96.57 10.09, 84.4 0.46 M114.2 21.05 C104.87 15.8, 98.39 6.1, 90.05 0.06 M114.2 21.05 C107.95 14.33, 101.63 10.26, 90.05 0.06 M113.05 14.76 C108.4 11.12, 103.01 4.22, 95.69 -0.33 M113.05 14.76 C109.24 10.88, 104.26 6.63, 95.69 -0.33" stroke="#82c91e" stroke-width="0.5" fill="none"></path><path d="M22.87 0 M22.87 0 C38.13 0.75, 54.81 1.21, 89.52 0 M22.87 0 C43.04 0.29, 64.48 -1.07, 89.52 0 M89.52 0 C105.5 0.65, 113.51 7.14, 112.39 22.87 M89.52 0 C103.32 -0.65, 111.99 8.72, 112.39 22.87 M112.39 22.87 C112.02 34.29, 111.01 50.5, 112.39 68.6 M112.39 22.87 C112.98 40.21, 113.46 59.57, 112.39 68.6 M112.39 68.6 C110.85 82.08, 105.75 91.99, 89.52 91.47 M112.39 68.6 C112.08 84.16, 104.28 91.7, 89.52 91.47 M89.52 91.47 C65.97 93.76, 46.01 92.82, 22.87 91.47 M89.52 91.47 C64.1 91.45, 38.29 91.26, 22.87 91.47 M22.87 91.47 C9.51 91.98, 0.65 83.73, 0 68.6 M22.87 91.47 C9.51 91.21, -0.28 84.82, 0 68.6 M0 68.6 C1.28 51.81, -0.14 39.23, 0 22.87 M0 68.6 C0.22 53.41, 0.73 40.69, 0 22.87 M0 22.87 C-1.59 7.17, 5.71 -1.71, 22.87 0 M0 22.87 C-2.18 6.69, 8.25 -1.56, 22.87 0" stroke="#000000" stroke-width="1" fill="none"></path></g><g stroke-linecap="round" transform="translate(464.8030700683594 81.15214683270082) rotate(0 56.194488525390625 17.560386657714844)"><path d="M2.34 2.03 C2.34 2.03, 2.34 2.03, 2.34 2.03 M2.34 2.03 C2.34 2.03, 2.34 2.03, 2.34 2.03 M0.76 9.94 C2.91 8.29, 6.41 4.13, 9.29 0.13 M0.76 9.94 C2.77 7.74, 4.28 5.2, 9.29 0.13 M1.16 15.58 C5.67 11.6, 9.44 5.49, 14.28 0.49 M1.16 15.58 C5.69 9.14, 10.29 4.81, 14.28 0.49 M1.55 21.22 C5.69 16.36, 14.73 8.47, 19.92 0.09 M1.55 21.22 C8.03 12.77, 15.69 3.93, 19.92 0.09 M1.29 27.62 C4.49 23.07, 11.65 17.75, 24.91 0.45 M1.29 27.62 C7.45 21.61, 11.29 15.79, 24.91 0.45 M3 31.76 C11.75 20.49, 22.16 11.54, 30.55 0.06 M3 31.76 C9.92 24.01, 16.2 16.4, 30.55 0.06 M5.36 35.14 C14.73 25.07, 20.19 14.99, 35.54 0.42 M5.36 35.14 C12.8 27.21, 20.12 19.52, 35.54 0.42 M11 34.74 C20.83 21.28, 29.23 12.1, 40.53 0.78 M11 34.74 C18 28.61, 23.62 20.83, 40.53 0.78 M15.99 35.1 C23.99 25.57, 27.49 20.16, 46.17 0.38 M15.99 35.1 C22.07 27.52, 28.54 21.4, 46.17 0.38 M20.98 35.46 C27.24 28.96, 34.73 18.88, 51.16 0.74 M20.98 35.46 C32.78 22.04, 44.8 8.16, 51.16 0.74 M26.62 35.07 C39.15 20.3, 51.9 6.51, 56.8 0.35 M26.62 35.07 C32.69 28.05, 40.03 20.9, 56.8 0.35 M31.61 35.43 C38.53 23.81, 47.99 15.76, 61.79 0.71 M31.61 35.43 C37.49 27.39, 42.75 20.92, 61.79 0.71 M37.25 35.03 C46.27 23.93, 54.64 14.51, 67.43 0.32 M37.25 35.03 C48.02 24.15, 56.48 13.14, 67.43 0.32 M42.24 35.39 C50.99 22.39, 62.78 13.54, 72.42 0.68 M42.24 35.39 C50.3 25.65, 59.01 16.38, 72.42 0.68 M47.88 35 C54.9 23.07, 64.7 16.61, 77.4 1.04 M47.88 35 C57.11 24.94, 66.2 13.79, 77.4 1.04 M52.87 35.36 C62.83 25.61, 67.33 17.95, 83.05 0.64 M52.87 35.36 C64.13 20.78, 76.11 8.55, 83.05 0.64 M58.51 34.96 C64.56 26.59, 74.77 15.67, 88.03 1 M58.51 34.96 C65.99 25.22, 75.17 15.63, 88.03 1 M63.5 35.32 C70.43 28.79, 77.87 18.92, 93.68 0.61 M63.5 35.32 C74.72 22.2, 86.86 9.25, 93.68 0.61 M68.49 35.68 C77.8 24.63, 86.43 17.06, 98.66 0.97 M68.49 35.68 C76.13 25.4, 85.28 17.22, 98.66 0.97 M74.13 35.29 C81.61 27.03, 88.8 19.45, 104.31 0.57 M74.13 35.29 C84.89 22.05, 95.7 8.94, 104.31 0.57 M79.12 35.65 C88.16 26.8, 95.04 15.94, 108.64 1.69 M79.12 35.65 C87.39 27.27, 94.33 17.1, 108.64 1.69 M84.76 35.25 C92.95 27.58, 98.2 20.38, 111.66 4.31 M84.76 35.25 C95.13 25.38, 103.04 13.67, 111.66 4.31 M89.75 35.61 C98.14 26.57, 106.66 16.66, 114.68 6.94 M89.75 35.61 C99.01 25.86, 107.86 14.45, 114.68 6.94 M95.39 35.22 C100.35 30.24, 103 23.51, 114.41 13.33 M95.39 35.22 C99.76 30, 103.67 25.65, 114.41 13.33 M100.38 35.58 C104.52 32.02, 109.53 27.31, 114.15 19.73 M100.38 35.58 C103.28 32.7, 105.22 29.62, 114.15 19.73 M104.71 36.69 C107.36 30.76, 112.41 28.04, 114.55 25.37 M104.71 36.69 C108.52 32.07, 111.66 28.27, 114.55 25.37 M4.63 34.3 C4.63 34.3, 4.63 34.3, 4.63 34.3 M4.63 34.3 C4.63 34.3, 4.63 34.3, 4.63 34.3 M11.03 34.57 C8.28 32.8, 5.61 29.36, 2.73 27.35 M11.03 34.57 C7.32 31.62, 4.08 29.47, 2.73 27.35 M17.43 34.83 C13.07 28.89, 7.77 26.44, 3.09 22.36 M17.43 34.83 C12 30.19, 7.31 25.03, 3.09 22.36 M23.07 34.43 C16.17 27.8, 10.29 24.82, 2.69 16.72 M23.07 34.43 C18.5 29.94, 13.5 25.95, 2.69 16.72 M29.47 34.69 C20.86 26.98, 14.03 20.74, 2.3 11.08 M29.47 34.69 C23.12 28.92, 17.74 24.77, 2.3 11.08 M35.86 34.96 C25.63 26.48, 14.83 19.68, 2.66 6.09 M35.86 34.96 C22.74 23.41, 10.37 12.76, 2.66 6.09 M41.51 34.56 C35.05 26.39, 24.37 18.28, 3.02 1.1 M41.51 34.56 C28.83 23.91, 18.35 14.97, 3.02 1.1 M47.91 34.82 C34.94 24.45, 23.53 13.79, 7.15 -0.61 M47.91 34.82 C36.44 24.76, 27.18 16.44, 7.15 -0.61 M54.3 35.08 C38.34 24.09, 27.18 11.22, 11.28 -2.31 M54.3 35.08 C39.14 22.98, 26.42 10.11, 11.28 -2.31 M59.95 34.69 C52.7 25.79, 41.75 20.11, 16.93 -2.71 M59.95 34.69 C46.74 23.47, 34.62 11.98, 16.93 -2.71 M66.34 34.95 C54.58 23.15, 43.67 16.21, 23.33 -2.45 M66.34 34.95 C51.47 22.13, 36.02 8.74, 23.33 -2.45 M72.74 35.21 C60.98 25.69, 50.3 17.41, 29.72 -2.18 M72.74 35.21 C58.49 24.13, 44.13 11.11, 29.72 -2.18 M78.38 34.82 C66.89 26.2, 54.66 15.21, 35.37 -2.58 M78.38 34.82 C64.95 24.44, 54.2 12.42, 35.37 -2.58 M84.78 35.08 C70.96 25.09, 59.52 14.39, 41.76 -2.32 M84.78 35.08 C70.2 22.8, 56.99 10.74, 41.76 -2.32 M91.18 35.34 C76.37 21.46, 61.96 7.28, 48.16 -2.06 M91.18 35.34 C78.61 25.3, 66.01 12.95, 48.16 -2.06 M96.82 34.95 C81.3 21.09, 67.01 10.11, 53.81 -2.45 M96.82 34.95 C83.17 23.5, 70.93 12.55, 53.81 -2.45 M103.22 35.21 C91.41 22.89, 76.49 12.12, 60.2 -2.19 M103.22 35.21 C87.32 20.2, 69.82 6.03, 60.2 -2.19 M105.85 32.19 C91.17 21.61, 79.55 8.87, 66.6 -1.93 M105.85 32.19 C91.1 18.23, 74.38 6.02, 66.6 -1.93 M111.49 31.79 C99.29 20.75, 85.48 10.93, 72.24 -2.32 M111.49 31.79 C98.82 20.17, 85.99 9.67, 72.24 -2.32 M113.36 28.12 C100.15 15.01, 85.24 3.14, 78.64 -2.06 M113.36 28.12 C100.77 16.54, 88.25 6.9, 78.64 -2.06 M113.72 23.13 C105.69 18.51, 103.04 14.83, 84.28 -2.45 M113.72 23.13 C107.29 18.37, 101.57 11.14, 84.28 -2.45 M113.32 17.49 C107.23 10.58, 100.62 8.04, 90.68 -2.19 M113.32 17.49 C106.47 10.96, 98.69 4.06, 90.68 -2.19 M113.68 12.5 C108.85 8.81, 104.25 4.93, 97.08 -1.93 M113.68 12.5 C108.61 7.21, 103.77 2.87, 97.08 -1.93 M113.29 6.86 C111.11 6.11, 109.22 3.1, 102.72 -2.33 M113.29 6.86 C110.77 4.28, 108.34 1.98, 102.72 -2.33" stroke="#82c91e" stroke-width="0.5" fill="none"></path><path d="M8.78 0 M8.78 0 C38.19 -1.24, 64.29 -2.8, 103.61 0 M8.78 0 C39.26 1.28, 71.21 -0.11, 103.61 0 M103.61 0 C109 -1.35, 112.16 3.53, 112.39 8.78 M103.61 0 C107.43 1.54, 114.38 3.72, 112.39 8.78 M112.39 8.78 C113.61 14.11, 111.98 15.75, 112.39 26.34 M112.39 8.78 C112.11 14.61, 111.52 20.63, 112.39 26.34 M112.39 26.34 C110.88 30.81, 109.64 35.41, 103.61 35.12 M112.39 26.34 C114.44 33.05, 109.86 32.93, 103.61 35.12 M103.61 35.12 C64.61 35.16, 29.17 36.66, 8.78 35.12 M103.61 35.12 C69.59 34.35, 36.6 34.33, 8.78 35.12 M8.78 35.12 C4.74 35.95, -0.78 30.77, 0 26.34 M8.78 35.12 C0.87 37.36, 2.2 32.77, 0 26.34 M0 26.34 C1.59 22.05, -1.43 14.42, 0 8.78 M0 26.34 C0.08 20.02, 0.04 14.37, 0 8.78 M0 8.78 C-0.4 4.11, 1.65 1.89, 8.78 0 M0 8.78 C1.2 4.03, 4.75 -1.63, 8.78 0" stroke="#000000" stroke-width="1" fill="none"></path></g><g transform="translate(501.99755859375 86.21253349041567) rotate(0 19 12.5)"><text x="19" y="18" font-family="Virgil, Segoe UI Emoji" font-size="20px" fill="#000000" text-anchor="middle" style="white-space: pre;" direction="ltr">API</text></g><g stroke-linecap="round"><g transform="translate(512.1892892049548 167.47491599773988) rotate(0 -39.60557280025341 101.40975463265555)"><path d="M-0.58 0.97 C-14.13 34.46, -67.25 167.83, -80.52 201.36 M1.31 0.44 C-11.93 34.01, -64.56 168.55, -78.34 202.38" stroke="#000000" stroke-width="1" fill="none"></path></g><g transform="translate(512.1892892049548 167.47491599773988) rotate(0 -39.60557280025341 101.40975463265555)"><path d="M-75.82 170.73 C-79.3 182.1, -78.27 194.22, -78.06 202.19 M-77.78 172.52 C-76.46 179.68, -78.26 188.36, -78.94 201.54" stroke="#000000" stroke-width="1" fill="none"></path></g><g transform="translate(512.1892892049548 167.47491599773988) rotate(0 -39.60557280025341 101.40975463265555)"><path d="M-56.76 178.32 C-67.16 186.85, -73.02 196.23, -78.06 202.19 M-58.72 180.11 C-62.32 185.38, -68.97 192.12, -78.94 201.54" stroke="#000000" stroke-width="1" fill="none"></path></g></g><mask></mask><g stroke-linecap="round"><g transform="translate(531.5348444090143 169.62631370281798) rotate(0 42.922429318311 99.90085067578593)"><path d="M-0.54 0.66 C13.86 34.08, 71.91 166.81, 86.38 199.84 M1.38 -0.04 C15.65 33.11, 71.51 164.83, 85.55 198.19" stroke="#000000" stroke-width="1" fill="none"></path></g><g transform="translate(531.5348444090143 169.62631370281798) rotate(0 42.922429318311 99.90085067578593)"><path d="M66.22 176.59 C72.56 183.11, 77.02 190.33, 86.6 196.73 M64.2 176.39 C71.27 181.15, 76.56 187.85, 85.94 198" stroke="#000000" stroke-width="1" fill="none"></path></g><g transform="translate(531.5348444090143 169.62631370281798) rotate(0 42.922429318311 99.90085067578593)"><path d="M85.12 168.59 C85.8 177.41, 84.64 187, 86.6 196.73 M83.11 168.4 C85.05 175.52, 85.17 184.41, 85.94 198" stroke="#000000" stroke-width="1" fill="none"></path></g></g><mask></mask><g stroke-linecap="round"><g transform="translate(520.649658203125 9.860398785825822) rotate(0 -0.7102718559614232 35.166715184384955)"><path d="M-0.14 0.78 C-0.01 12.42, 0.18 58.61, 0.26 70.19 M-1.68 0.14 C-1.56 11.4, -0.44 57.06, -0.15 68.43" stroke="#000000" stroke-width="1" fill="none"></path></g><g transform="translate(520.649658203125 9.860398785825822) rotate(0 -0.7102718559614232 35.166715184384955)"><path d="M-9.81 42.23 C-7.1 49.4, -4.16 56.27, -0.37 70.23 M-10.11 40.13 C-9.19 45.4, -6.69 50.86, 0.24 68.15" stroke="#000000" stroke-width="1" fill="none"></path></g><g transform="translate(520.649658203125 9.860398785825822) rotate(0 -0.7102718559614232 35.166715184384955)"><path d="M10.7 41.72 C8.2 48.99, 5.94 56, -0.37 70.23 M10.4 39.62 C7.19 45.17, 5.56 50.73, 0.24 68.15" stroke="#000000" stroke-width="1" fill="none"></path></g></g><mask></mask><g transform="translate(602.847412109375 403.5896315739118) rotate(0 19 12.5)"><text x="19" y="18" font-family="Virgil, Segoe UI Emoji" font-size="20px" fill="#000000" text-anchor="middle" style="white-space: pre;" direction="ltr">API</text></g></svg>